<?xml version="1.0" standalone="no"?>
<!DOCTYPE svg PUBLIC "-//W3C//DTD SVG 20010904//EN"
 "http://www.w3.org/TR/2001/REC-SVG-20010904/DTD/svg10.dtd">
<svg version="1.0" xmlns="http://www.w3.org/2000/svg"
 width="1488.000000pt" height="363.000000pt" viewBox="0 0 1488.000000 363.000000"
 preserveAspectRatio="xMidYMid meet">

<g transform="translate(0.000000,363.000000) scale(0.100000,-0.100000)"
fill="#000000" stroke="none">
<path d="M10690 2185 l0 -1445 265 0 265 0 0 1445 0 1445 -265 0 -265 0 0
-1445z"/>
<path d="M7710 2954 c0 -295 -4 -534 -9 -532 -4 2 -27 25 -50 51 -136 158
-306 237 -509 237 -386 -1 -703 -323 -788 -800 -22 -125 -22 -346 0 -461 68
-357 280 -615 581 -709 89 -28 259 -38 347 -20 134 26 257 99 367 216 l71 76
0 -136 0 -136 255 0 255 0 0 1375 0 1375 -260 0 -260 0 0 -536z m-303 -725
c66 -25 116 -59 160 -109 196 -226 178 -672 -35 -861 -78 -69 -141 -93 -247
-94 -81 0 -96 3 -156 32 -79 39 -145 106 -189 192 -139 277 -61 680 157 808
97 57 211 68 310 32z"/>
<path d="M11600 3230 l0 -250 270 0 270 0 0 250 0 250 -270 0 -270 0 0 -250z"/>
<path d="M13260 2820 c-98 -21 -160 -41 -249 -81 -224 -101 -435 -322 -524
-549 -135 -343 -107 -723 76 -1033 60 -100 202 -246 310 -317 332 -219 764
-239 1112 -51 572 308 750 1056 382 1606 -101 151 -297 305 -477 374 -181 70
-443 91 -630 51z m445 -458 c147 -59 256 -161 327 -307 52 -110 71 -205 65
-330 -11 -217 -126 -410 -317 -534 -83 -54 -168 -82 -270 -88 -285 -17 -533
161 -622 447 -19 63 -23 96 -22 205 1 112 4 141 27 210 37 111 90 196 172 274
75 71 149 113 248 143 49 14 88 17 187 15 113 -3 133 -7 205 -35z"/>
<path d="M2872 2709 c-203 -24 -369 -99 -509 -233 -207 -196 -307 -449 -306
-771 2 -416 188 -741 518 -905 158 -78 236 -95 445 -94 198 1 297 16 445 68
261 91 425 277 485 551 l18 85 -252 0 -251 0 -17 -48 c-57 -159 -185 -242
-372 -242 -140 0 -253 47 -350 146 -75 76 -146 232 -146 321 l0 23 700 0 700
0 0 78 c0 144 -45 372 -97 497 -82 196 -221 348 -398 437 -153 78 -396 112
-613 87z m317 -449 c88 -32 153 -95 200 -193 22 -45 42 -93 43 -107 l3 -25
-414 -3 -414 -2 6 35 c10 63 67 162 123 215 119 113 287 143 453 80z"/>
<path d="M5172 2700 c-40 -11 -96 -32 -125 -47 -57 -31 -188 -150 -215 -195
-9 -15 -20 -28 -24 -28 -4 0 -8 56 -8 125 l0 125 -265 0 -265 0 0 -965 0 -965
265 0 265 0 0 518 c0 306 4 544 10 582 28 171 106 288 237 351 58 28 79 33
143 34 109 0 164 -19 226 -79 61 -60 88 -125 104 -248 6 -48 10 -308 10 -620
l0 -538 265 0 265 0 0 568 c0 563 -7 735 -36 862 -48 215 -156 367 -320 452
-82 42 -158 63 -274 78 -118 14 -173 12 -258 -10z"/>
<path d="M9400 2714 c-190 -24 -319 -62 -431 -128 -288 -172 -449 -488 -449
-882 0 -406 188 -733 517 -898 335 -168 852 -119 1123 106 144 120 233 280
258 461 l9 67 -246 0 -246 0 -27 -58 c-68 -144 -208 -222 -404 -222 -151 0
-257 42 -344 137 -91 99 -131 223 -131 403 0 331 152 535 425 571 189 25 350
-57 426 -217 l31 -64 258 0 259 0 -14 74 c-76 403 -385 638 -854 651 -69 2
-141 1 -160 -1z"/>
<path d="M14 2658 c3 -13 151 -448 329 -968 l323 -945 303 0 304 0 342 965
342 965 -275 3 c-166 1 -278 -1 -281 -7 -3 -5 -98 -278 -210 -605 -113 -328
-208 -596 -211 -596 -3 0 -99 271 -212 603 l-205 602 -278 3 -277 2 6 -22z"/>
<path d="M11600 1710 l0 -970 265 0 265 0 0 970 0 970 -265 0 -265 0 0 -970z"/>
</g>
</svg>
