<svg width="190" height="58" viewBox="0 0 190 58" fill="none" xmlns="http://www.w3.org/2000/svg">
<rect x="1.6091" y="1.12863" width="187.602" height="55.1761" rx="10.2543" fill="#0C0D10"/>
<rect x="1.6091" y="1.12863" width="187.602" height="55.1761" rx="10.2543" stroke="white" stroke-width="1.57758"/>
<path d="M129.344 27.5851V30.8357H127.08V32.9675H129.344V40.2106C129.344 42.6839 130.587 43.6732 133.715 43.6732C134.264 43.6732 134.788 43.6143 135.246 43.5437V41.4355C134.853 41.4708 134.605 41.4944 134.173 41.4944C132.772 41.4944 132.157 40.9055 132.157 39.5629V32.9675H135.246V30.8357H132.157V27.5851H129.344Z" fill="white"/>
<path d="M143.213 43.8499C147.374 43.8499 149.926 41.3413 149.926 37.1838C149.926 33.0499 147.361 30.5295 143.213 30.5295C139.052 30.5295 136.487 33.0499 136.487 37.1838C136.487 41.3413 139.039 43.8499 143.213 43.8499ZM143.213 41.6004C140.766 41.6004 139.392 39.9869 139.392 37.1838C139.392 34.4043 140.766 32.779 143.213 32.779C145.647 32.779 147.034 34.4043 147.034 37.1838C147.034 39.9751 145.647 41.6004 143.213 41.6004Z" fill="white"/>
<path d="M152.11 43.6026H154.923V36.0296C154.923 34.2277 156.428 33.0146 158.561 33.0146C159.058 33.0146 159.896 33.097 160.131 33.1677V30.6708C159.83 30.6002 159.294 30.5649 158.875 30.5649C157.017 30.5649 155.433 31.4835 155.028 32.7437H154.818V30.7768H152.11V43.6026Z" fill="white"/>
<path d="M167.117 32.6848C169.198 32.6848 170.559 33.9921 170.624 36.0061H163.427C163.584 34.0039 165.037 32.6848 167.117 32.6848ZM170.611 40.14C170.088 41.1411 168.923 41.6946 167.222 41.6946C164.971 41.6946 163.519 40.2695 163.427 38.02V37.8787H173.49V36.9954C173.49 32.9675 171.095 30.5295 167.13 30.5295C163.113 30.5295 160.561 33.1323 160.561 37.2309C160.561 41.3295 163.061 43.8499 167.143 43.8499C170.402 43.8499 172.679 42.4366 173.32 40.14H170.611Z" fill="white"/>
<path d="M110.893 38.8662C111.11 42.0156 114.026 44.0298 118.367 44.0298C123.005 44.0298 125.908 41.918 125.908 38.5488C125.908 35.8999 124.253 34.4351 120.238 33.5928L118.082 33.1167C115.532 32.5796 114.501 31.8594 114.501 30.6021C114.501 29.0151 116.102 27.9775 118.502 27.9775C120.781 27.9775 122.354 28.9907 122.639 30.6143H125.596C125.42 27.648 122.517 25.5605 118.543 25.5605C114.271 25.5605 111.422 27.648 111.422 30.7852C111.422 33.3731 113.036 34.9111 116.576 35.6558L119.099 36.2051C121.69 36.7544 122.829 37.5601 122.829 38.9028C122.829 40.4653 121.039 41.6006 118.597 41.6006C115.98 41.6006 114.162 40.5386 113.904 38.8662H110.893Z" fill="white"/>
<path d="M81.7481 30.5649C79.8114 30.5649 78.1364 31.4364 77.2727 32.8968H77.0633V30.7768H74.3545V47.866H77.168V41.6593H77.3905C78.1364 43.0137 79.746 43.8145 81.7743 43.8145C85.373 43.8145 87.6631 41.2588 87.6631 37.1838C87.6631 33.1088 85.373 30.5649 81.7481 30.5649ZM80.9499 41.5415C78.5944 41.5415 77.1156 39.8691 77.1156 37.1956C77.1156 34.5103 78.5944 32.8379 80.963 32.8379C83.3446 32.8379 84.771 34.475 84.771 37.1838C84.771 39.9044 83.3446 41.5415 80.9499 41.5415Z" fill="white"/>
<path d="M97.508 30.5649C95.5713 30.5649 93.8962 31.4364 93.0326 32.8968H92.8232V30.7768H90.1144V47.866H92.9279V41.6593H93.1503C93.8962 43.0137 95.5058 43.8145 97.5342 43.8145C101.133 43.8145 103.423 41.2588 103.423 37.1838C103.423 33.1088 101.133 30.5649 97.508 30.5649ZM96.7098 41.5415C94.3543 41.5415 92.8755 39.8691 92.8755 37.1956C92.8755 34.5103 94.3543 32.8379 96.7228 32.8379C99.1045 32.8379 100.531 34.475 100.531 37.1838C100.531 39.9044 99.1045 41.5415 96.7098 41.5415Z" fill="white"/>
<path d="M69.3065 43.6026H72.5346L65.4681 25.9878H62.1993L55.1328 43.6026H58.2524L60.0563 38.9273H67.5162L69.3065 43.6026ZM63.6777 29.186H63.9083L66.7431 36.6323H60.8294L63.6777 29.186Z" fill="white"/>
<path d="M57.0234 12.7013V21.1988H60.4324C63.2459 21.1988 64.8751 19.6383 64.8751 16.9235C64.8751 14.25 63.2328 12.7013 60.4324 12.7013H57.0234ZM58.4891 13.9026H60.2688C62.2252 13.9026 63.3833 15.0215 63.3833 16.9412C63.3833 18.8904 62.2448 19.9975 60.2688 19.9975H58.4891V13.9026Z" fill="white"/>
<path d="M69.8648 21.3224C71.9455 21.3224 73.2214 20.0681 73.2214 17.9894C73.2214 15.9225 71.939 14.6623 69.8648 14.6623C67.7842 14.6623 66.5017 15.9225 66.5017 17.9894C66.5017 20.0681 67.7776 21.3224 69.8648 21.3224ZM69.8648 20.1977C68.6413 20.1977 67.9543 19.3909 67.9543 17.9894C67.9543 16.5997 68.6413 15.787 69.8648 15.787C71.0819 15.787 71.7754 16.5997 71.7754 17.9894C71.7754 19.385 71.0819 20.1977 69.8648 20.1977Z" fill="white"/>
<path d="M84.0868 14.7859H82.6801L81.4107 19.6795H81.2995L79.8339 14.7859H78.486L77.0203 19.6795H76.9156L75.6398 14.7859H74.2134L76.1763 21.1988H77.6223L79.0879 16.476H79.1992L80.6714 21.1988H82.1305L84.0868 14.7859Z" fill="white"/>
<path d="M85.7069 21.1988H87.1137V17.4476C87.1137 16.4466 87.7745 15.8223 88.8149 15.8223C89.8552 15.8223 90.3525 16.3347 90.3525 17.3652V21.1988H91.7592V17.0472C91.7592 15.522 90.8825 14.6623 89.2925 14.6623C88.2194 14.6623 87.5128 15.0921 87.166 15.8047H87.0613V14.7859H85.7069V21.1988Z" fill="white"/>
<path d="M93.9747 21.1988H95.3815V12.2832H93.9747V21.1988Z" fill="white"/>
<path d="M100.672 21.3224C102.753 21.3224 104.029 20.0681 104.029 17.9894C104.029 15.9225 102.746 14.6623 100.672 14.6623C98.5915 14.6623 97.3091 15.9225 97.3091 17.9894C97.3091 20.0681 98.585 21.3224 100.672 21.3224ZM100.672 20.1977C99.4486 20.1977 98.7616 19.3909 98.7616 17.9894C98.7616 16.5997 99.4486 15.787 100.672 15.787C101.889 15.787 102.583 16.5997 102.583 17.9894C102.583 19.385 101.889 20.1977 100.672 20.1977Z" fill="white"/>
<path d="M108.22 20.2389C107.455 20.2389 106.899 19.9033 106.899 19.3262C106.899 18.7608 107.343 18.4605 108.325 18.4016L110.065 18.3015V18.8374C110.065 19.6324 109.28 20.2389 108.22 20.2389ZM107.86 21.3048C108.796 21.3048 109.575 20.9397 110 20.2978H110.111V21.1988H111.466V16.8175C111.466 15.4631 110.458 14.6623 108.672 14.6623C107.056 14.6623 105.904 15.3689 105.76 16.4701H107.121C107.278 16.0167 107.821 15.7576 108.606 15.7576C109.568 15.7576 110.065 16.1403 110.065 16.8175V17.3711L108.135 17.4712C106.441 17.5654 105.485 18.2308 105.485 19.385C105.485 20.5569 106.486 21.3048 107.86 21.3048Z" fill="white"/>
<path d="M116.239 21.3048C117.221 21.3048 118.052 20.8867 118.477 20.1859H118.588V21.1988H119.936V12.2832H118.53V15.8047H118.425C118.039 15.098 117.214 14.6799 116.239 14.6799C114.44 14.6799 113.282 15.9637 113.282 17.9894C113.282 20.021 114.427 21.3048 116.239 21.3048ZM116.639 15.8165C117.816 15.8165 118.556 16.6585 118.556 17.9953C118.556 19.3379 117.823 20.1682 116.639 20.1682C115.448 20.1682 114.735 19.3497 114.735 17.9894C114.735 16.6409 115.454 15.8165 116.639 15.8165Z" fill="white"/>
<path d="M129.059 21.3224C131.139 21.3224 132.415 20.0681 132.415 17.9894C132.415 15.9225 131.133 14.6623 129.059 14.6623C126.978 14.6623 125.695 15.9225 125.695 17.9894C125.695 20.0681 126.971 21.3224 129.059 21.3224ZM129.059 20.1977C127.835 20.1977 127.148 19.3909 127.148 17.9894C127.148 16.5997 127.835 15.787 129.059 15.787C130.276 15.787 130.969 16.5997 130.969 17.9894C130.969 19.385 130.276 20.1977 129.059 20.1977Z" fill="white"/>
<path d="M134.277 21.1988H135.684V17.4476C135.684 16.4466 136.345 15.8223 137.385 15.8223C138.426 15.8223 138.923 16.3347 138.923 17.3652V21.1988H140.33V17.0472C140.33 15.522 139.453 14.6623 137.863 14.6623C136.79 14.6623 136.083 15.0921 135.736 15.8047H135.632V14.7859H134.277V21.1988Z" fill="white"/>
<path d="M146.809 13.1901V14.8154H145.677V15.8812H146.809V19.5028C146.809 20.7395 147.43 21.2341 148.994 21.2341C149.269 21.2341 149.531 21.2047 149.76 21.1693V20.1152C149.563 20.1329 149.439 20.1447 149.223 20.1447C148.523 20.1447 148.215 19.8503 148.215 19.1789V15.8812H149.76V14.8154H148.215V13.1901H146.809Z" fill="white"/>
<path d="M151.648 21.1988H153.055V17.4535C153.055 16.4819 153.696 15.8282 154.847 15.8282C155.842 15.8282 156.372 16.3464 156.372 17.3711V21.1988H157.779V17.059C157.779 15.5338 156.843 14.6681 155.325 14.6681C154.252 14.6681 153.5 15.098 153.153 15.8165H153.042V12.2832H151.648V21.1988Z" fill="white"/>
<path d="M162.854 15.7399C163.894 15.7399 164.574 16.3936 164.607 17.4005H161.008C161.087 16.3994 161.813 15.7399 162.854 15.7399ZM164.6 19.4675C164.339 19.968 163.756 20.2448 162.906 20.2448C161.78 20.2448 161.054 19.5323 161.008 18.4075V18.3368H166.04V17.8952C166.04 15.8812 164.843 14.6623 162.86 14.6623C160.851 14.6623 159.575 15.9637 159.575 18.013C159.575 20.0622 160.825 21.3224 162.867 21.3224C164.496 21.3224 165.634 20.6158 165.955 19.4675H164.6Z" fill="white"/>
<path d="M39.8591 29.1456C39.8932 26.7605 41.3164 24.5037 43.5742 23.2544C42.1499 21.4237 39.7642 20.2629 37.2822 20.193C34.6349 19.9429 32.0684 21.6187 30.7194 21.6187C29.3443 21.6187 27.2672 20.2179 25.0306 20.2593C22.1153 20.344 19.3975 21.8358 17.9791 24.1297C14.9302 28.8806 17.2044 35.8628 20.125 39.703C21.5863 41.5835 23.294 43.684 25.5286 43.6095C27.7153 43.5279 28.532 42.3546 31.1715 42.3546C33.7866 42.3546 34.5528 43.6095 36.8327 43.5622C39.1791 43.5279 40.6575 41.6733 42.0675 39.7751C43.1174 38.4352 43.9253 36.9543 44.4613 35.3873C41.7038 34.3376 39.8623 31.8401 39.8591 29.1456Z" fill="white"/>
<path d="M35.5527 17.6675C36.832 16.2852 37.4623 14.5086 37.3097 12.7148C35.3551 12.8996 33.5496 13.7404 32.253 15.0696C30.985 16.3683 30.3252 18.1137 30.4499 19.8389C32.4052 19.857 34.3274 19.039 35.5527 17.6675Z" fill="white"/>
</svg>
