<svg width="20" height="20" viewBox="0 0 20 20" fill="none" xmlns="http://www.w3.org/2000/svg">
<path d="M18.3333 6.8915V3.52484C18.3333 2.19984 17.8 1.6665 16.475 1.6665H13.1083C11.7833 1.6665 11.25 2.19984 11.25 3.52484V6.8915C11.25 8.2165 11.7833 8.74984 13.1083 8.74984H16.475C17.8 8.74984 18.3333 8.2165 18.3333 6.8915Z" stroke="white" stroke-width="1.5" stroke-linecap="round" stroke-linejoin="round"/>
<path d="M8.75033 7.09984V3.3165C8.75033 2.1415 8.21699 1.6665 6.89199 1.6665H3.52533C2.20033 1.6665 1.66699 2.1415 1.66699 3.3165V7.0915C1.66699 8.27484 2.20033 8.7415 3.52533 8.7415H6.89199C8.21699 8.74984 8.75033 8.27484 8.75033 7.09984Z" stroke="white" stroke-width="1.5" stroke-linecap="round" stroke-linejoin="round"/>
<path d="M8.75033 16.475V13.1083C8.75033 11.7833 8.21699 11.25 6.89199 11.25H3.52533C2.20033 11.25 1.66699 11.7833 1.66699 13.1083V16.475C1.66699 17.8 2.20033 18.3333 3.52533 18.3333H6.89199C8.21699 18.3333 8.75033 17.8 8.75033 16.475Z" stroke="white" stroke-width="1.5" stroke-linecap="round" stroke-linejoin="round"/>
<path d="M12.5 12.9165H17.5" stroke="white" stroke-width="1.5" stroke-linecap="round"/>
<path d="M12.5 16.25H17.5" stroke="white" stroke-width="1.5" stroke-linecap="round"/>
</svg>
