<svg width="190" height="58" viewBox="0 0 190 58" fill="none" xmlns="http://www.w3.org/2000/svg">
<rect x="0.700664" y="1.04051" width="187.778" height="55.3524" rx="6.30597" fill="black"/>
<rect x="0.700664" y="1.04051" width="187.778" height="55.3524" rx="6.30597" stroke="white" stroke-width="1.40133"/>
<path d="M149.848 42.9041H152.463V25.1662H149.848V42.9041ZM173.4 31.5561L170.402 39.2461H170.313L167.202 31.5561H164.385L169.051 42.3039L166.39 48.2829H169.117L176.308 31.5561H173.4ZM158.57 40.8894C157.715 40.8894 156.519 40.4554 156.519 39.3831C156.519 38.014 158.008 37.4892 159.291 37.4892C160.44 37.4892 160.983 37.7397 161.681 38.0823C161.477 39.7256 160.08 40.8894 158.57 40.8894ZM158.886 31.1681C156.993 31.1681 155.033 32.0127 154.221 33.8839L156.542 34.8649C157.038 33.8839 157.961 33.5647 158.931 33.5647C160.283 33.5647 161.658 34.3855 161.681 35.8464V36.0288C161.207 35.7549 160.192 35.3443 158.954 35.3443C156.451 35.3443 153.905 36.7359 153.905 39.3375C153.905 41.7108 155.956 43.2399 158.254 43.2399C160.012 43.2399 160.983 42.4412 161.589 41.5052H161.681V42.8752H164.206V36.0742C164.206 32.925 161.882 31.1681 158.886 31.1681ZM142.726 33.7153H139.007V27.6355H142.726C144.681 27.6355 145.791 29.2738 145.791 30.6753C145.791 32.0499 144.681 33.7153 142.726 33.7153ZM142.659 25.1662H136.393V42.9041H139.007V36.184H142.659C145.557 36.184 148.406 34.0601 148.406 30.6753C148.406 27.2912 145.557 25.1662 142.659 25.1662ZM108.493 40.8927C106.686 40.8927 105.174 39.3608 105.174 37.2586C105.174 35.1321 106.686 33.5784 108.493 33.5784C110.276 33.5784 111.676 35.1321 111.676 37.2586C111.676 39.3608 110.276 40.8927 108.493 40.8927ZM111.495 32.5493H111.405C110.818 31.8409 109.689 31.2009 108.267 31.2009C105.286 31.2009 102.555 33.8528 102.555 37.2586C102.555 40.6411 105.286 43.2698 108.267 43.2698C109.689 43.2698 110.818 42.6296 111.405 41.8987H111.495V42.7666C111.495 45.0761 110.276 46.3098 108.312 46.3098C106.71 46.3098 105.716 45.1443 105.309 44.1616L103.03 45.1215C103.684 46.7211 105.422 48.6875 108.312 48.6875C111.383 48.6875 113.979 46.8585 113.979 42.4008V31.5666H111.495V32.5493ZM115.785 42.9041H118.403V25.1662H115.785V42.9041ZM122.264 37.0525C122.197 34.7207 124.048 33.5324 125.38 33.5324C126.419 33.5324 127.298 34.0584 127.593 34.8122L122.264 37.0525ZM130.391 35.0405C129.895 33.6926 128.382 31.2009 125.289 31.2009C122.218 31.2009 119.668 33.6467 119.668 37.2353C119.668 40.6184 122.197 43.2698 125.582 43.2698C128.314 43.2698 129.895 41.5789 130.55 40.5956L128.518 39.2239C127.84 40.2298 126.915 40.8927 125.582 40.8927C124.251 40.8927 123.302 40.2754 122.694 39.0638L130.662 35.7267L130.391 35.0405ZM66.9001 33.0525V35.6125H72.9503C72.7697 37.0525 72.2956 38.1038 71.5731 38.8354C70.6923 39.7266 69.3151 40.7098 66.9001 40.7098C63.1749 40.7098 60.2628 37.6698 60.2628 33.8982C60.2628 30.1267 63.1749 27.0862 66.9001 27.0862C68.9094 27.0862 70.3765 27.8864 71.4603 28.9151L73.2443 27.1089C71.7313 25.6462 69.7223 24.5262 66.9001 24.5262C61.7971 24.5262 57.5078 28.7322 57.5078 33.8982C57.5078 39.0638 61.7971 43.2698 66.9001 43.2698C69.654 43.2698 71.7313 42.3554 73.3565 40.6411C75.0272 38.9496 75.5467 36.5725 75.5467 34.6521C75.5467 34.0584 75.5011 33.5097 75.4109 33.0525H66.9001ZM82.4252 40.8927C80.6188 40.8927 79.0609 39.384 79.0609 37.2353C79.0609 35.0638 80.6188 33.5784 82.4252 33.5784C84.231 33.5784 85.7888 35.0638 85.7888 37.2353C85.7888 39.384 84.231 40.8927 82.4252 40.8927ZM82.4252 31.2009C79.1282 31.2009 76.4421 33.738 76.4421 37.2353C76.4421 40.7098 79.1282 43.2698 82.4252 43.2698C85.721 43.2698 88.4076 40.7098 88.4076 37.2353C88.4076 33.738 85.721 31.2009 82.4252 31.2009ZM95.4755 40.8927C93.6703 40.8927 92.1119 39.384 92.1119 37.2353C92.1119 35.0638 93.6703 33.5784 95.4755 33.5784C97.282 33.5784 98.8393 35.0638 98.8393 37.2353C98.8393 39.384 97.282 40.8927 95.4755 40.8927ZM95.4755 31.2009C92.1797 31.2009 89.4937 33.738 89.4937 37.2353C89.4937 40.7098 92.1797 43.2698 95.4755 43.2698C98.7725 43.2698 101.459 40.7098 101.459 37.2353C101.459 33.738 98.7725 31.2009 95.4755 31.2009Z" fill="white"/>
<path d="M62.3262 19.1191C61.0698 19.1191 59.9892 18.6715 59.1179 17.7895C58.2462 16.9069 57.8047 15.8018 57.8047 14.5168C57.8047 13.2317 58.2464 12.1286 59.1179 11.244C59.9892 10.3618 61.0698 9.91438 62.3262 9.91438C62.9662 9.91438 63.5636 10.0263 64.1345 10.2594C64.7056 10.4925 65.1728 10.8161 65.5407 11.2396L65.6275 11.3396L64.6474 12.3317L64.5494 12.2098C64.3054 11.9062 63.9951 11.6704 63.6019 11.4989C63.2101 11.3279 62.7809 11.249 62.3262 11.249C61.4413 11.249 60.707 11.5532 60.0939 12.1718C60.0937 12.1719 60.0935 12.1719 60.0933 12.1721C59.4941 12.8031 59.1929 13.5714 59.1929 14.5168C59.1929 15.4629 59.4945 16.2313 60.0944 16.8626C60.7075 17.4808 61.4417 17.7868 62.3261 17.7868C63.1362 17.7868 63.8062 17.5578 64.3329 17.1045H64.3332C64.8235 16.6826 65.1178 16.1125 65.2219 15.3858H62.186V14.0778H66.534L66.5526 14.1975C66.5882 14.4275 66.6133 14.6494 66.6133 14.8626C66.6133 16.0831 66.2458 17.0793 65.5248 17.8123C64.7109 18.6858 63.6406 19.1191 62.3262 19.1191L62.3262 19.1191ZM100.08 19.1191C98.8222 19.1191 97.7541 18.6713 96.894 17.7895C96.8939 17.7894 96.8939 17.7894 96.8938 17.7892C96.8937 17.7891 96.8936 17.7891 96.8935 17.789C96.0322 16.9167 95.6049 15.8113 95.6049 14.5167C95.6049 13.2222 96.0322 12.1168 96.8935 11.2445C96.8936 11.2444 96.8936 11.2444 96.8938 11.2443L96.894 11.244C97.7541 10.362 98.8222 9.91436 100.08 9.91436C101.336 9.91436 102.405 10.3621 103.265 11.2573C104.126 12.1294 104.554 13.2327 104.554 14.5167C104.554 15.8113 104.126 16.9166 103.265 17.7889L103.265 17.7892C102.404 18.6717 101.326 19.1191 100.08 19.1191L100.08 19.1191ZM67.8576 18.9285V10.105H67.9977H73.0622V11.4396H69.2217V13.8628H72.6856V15.1708H69.2217V17.5961H73.0622V18.9285H67.8576ZM76.2475 18.9285V11.4396H73.8915V10.105H79.9675V11.4396H79.8274H77.6116V18.9285H76.2475ZM83.8508 18.9285V10.105H85.2149V10.2469V18.9285H83.8508ZM88.6487 18.9285V11.4396H86.2927V10.105H92.3687V11.4396H92.2286H90.0128V18.9285H88.6487ZM105.765 18.9285V10.105H107.303L111.217 16.4505L111.184 15.2459V10.105H112.548V18.9285H111.198L107.095 12.2624L107.129 13.4662V13.4681V18.9285H105.765ZM100.08 17.7867C100.965 17.7867 101.688 17.4812 102.277 16.8637L102.277 16.8625L102.278 16.8617C102.875 16.2568 103.168 15.4782 103.168 14.5167C103.168 13.5576 102.875 12.7763 102.278 12.1717L102.277 12.1709L102.277 12.17C101.688 11.5527 100.966 11.2489 100.08 11.2489C99.1938 11.2489 98.4716 11.5521 97.8717 12.1695L97.8711 12.1701C97.2849 12.7893 96.9931 13.5579 96.9931 14.5167C96.9931 15.4778 97.2848 16.2439 97.8711 16.8633L97.8717 16.8639C98.4717 17.4814 99.194 17.7867 100.08 17.7867V17.7867Z" fill="white"/>
<path d="M29.0286 27.8958L14.1094 43.9287C14.1099 43.932 14.1111 43.9348 14.1116 43.9381C14.5692 45.679 16.1396 46.9609 18.0035 46.9609C18.7486 46.9609 19.4482 46.757 20.0481 46.3989L20.0957 46.3707L36.8892 36.5591L29.0286 27.8958Z" fill="#EA4335"/>
<path d="M44.1124 25.1668L44.0981 25.1569L36.8479 20.9014L28.6797 28.2606L36.8763 36.5586L44.0883 32.3453C45.3527 31.6542 46.211 30.3046 46.211 28.7483C46.211 27.2032 45.3642 25.8602 44.1124 25.1668Z" fill="#FBBC04"/>
<path d="M14.1056 13.4999C14.0159 13.8347 13.9688 14.1855 13.9688 14.5497V42.8806C13.9688 43.2441 14.0153 43.596 14.1061 43.9297L29.5388 28.3069L14.1056 13.4999Z" fill="#4285F4"/>
<path d="M29.1314 28.7148L36.8535 20.8984L20.0791 11.0514C19.4693 10.6816 18.7578 10.4682 17.9963 10.4682C16.1324 10.4682 14.5598 11.7524 14.1021 13.4955C14.1016 13.4972 14.1016 13.4983 14.1016 13.4999L29.1314 28.7148Z" fill="#34A853"/>
</svg>
