<svg width="38" height="38" viewBox="0 0 38 38" fill="none" xmlns="http://www.w3.org/2000/svg">
<path d="M23.0671 26.7919L11.4498 23.1622C8.6919 22.2936 8.65302 18.424 11.3989 17.5196L14.5922 16.4466C15.4715 16.1553 16.182 15.4629 16.4612 14.5847L17.5465 11.3801C18.4613 8.6531 22.3616 8.70678 23.1888 11.4679L26.7896 23.099C27.479 25.382 25.3319 27.5208 23.0671 26.7919Z" stroke="#00C53A" stroke-width="1.5" stroke-linecap="round" stroke-linejoin="round"/>
<path d="M3.12778 13.8806L3.11013 23.1305C3.09543 30.8389 6.17288 33.9281 13.8812 33.9428L23.1312 33.9604C30.8395 33.9751 33.9287 30.8977 33.9434 23.1894L33.9611 13.9394C33.9758 6.23105 30.8983 3.14184 23.19 3.12714L13.94 3.10949C6.23169 3.09479 3.14248 6.17224 3.12778 13.8806Z" stroke="#00C53A" stroke-width="1.5" stroke-linecap="round" stroke-linejoin="round"/>
</svg>
