<svg width="37" height="37" viewBox="0 0 37 37" fill="none" xmlns="http://www.w3.org/2000/svg">
<path d="M26.7482 13.9516L23.1407 25.5758C22.2774 28.3354 18.4078 28.3816 17.4982 25.6375L16.4191 22.4462C16.1262 21.5675 15.4324 20.8583 14.5537 20.5808L11.347 19.5016C8.61824 18.592 8.66449 14.6916 11.4241 13.8591L23.0482 10.2362C25.3299 9.54247 27.4728 11.6854 26.7482 13.9516Z" stroke="#E33629" stroke-width="1.5" stroke-linecap="round" stroke-linejoin="round"/>
<path d="M13.8747 33.9163H23.1247C30.833 33.9163 33.9163 30.833 33.9163 23.1247V13.8747C33.9163 6.16634 30.833 3.08301 23.1247 3.08301H13.8747C6.16634 3.08301 3.08301 6.16634 3.08301 13.8747V23.1247C3.08301 30.833 6.16634 33.9163 13.8747 33.9163Z" stroke="#E33629" stroke-width="1.5" stroke-linecap="round" stroke-linejoin="round"/>
</svg>
