<svg width="17" height="17" viewBox="0 0 17 17" fill="none" xmlns="http://www.w3.org/2000/svg">
<path d="M14.0902 7.48047V10.4738C14.0902 13.4671 12.8968 14.6672 9.89681 14.6672H6.30351C5.91684 14.6672 5.56348 14.6472 5.23682 14.6005" stroke="#2F2F2F" stroke-width="1.5" stroke-linecap="round" stroke-linejoin="round"/>
<path d="M2.11035 10.3472V7.48047" stroke="#2F2F2F" stroke-width="1.5" stroke-linecap="round" stroke-linejoin="round"/>
<path d="M8.10377 7.99967C9.32377 7.99967 10.2238 7.00638 10.1038 5.78638L9.65707 1.33301H6.54375L6.09709 5.78638C5.97709 7.00638 6.88377 7.99967 8.10377 7.99967Z" stroke="#2F2F2F" stroke-width="1.5" stroke-linecap="round" stroke-linejoin="round"/>
<path d="M12.3037 7.99967C13.6504 7.99967 14.637 6.90632 14.5037 5.56632L14.317 3.73299C14.077 1.99966 13.4104 1.33301 11.6637 1.33301H9.63037L10.097 6.00635C10.217 7.10635 11.2037 7.99967 12.3037 7.99967Z" stroke="#2F2F2F" stroke-width="1.5" stroke-linecap="round" stroke-linejoin="round"/>
<path d="M3.86368 7.99967C4.96368 7.99967 5.95701 7.10635 6.06368 6.00635L6.21036 4.53304L6.53035 1.33301H4.49703C2.75036 1.33301 2.08371 1.99966 1.84371 3.73299L1.65702 5.56632C1.52369 6.90632 2.51702 7.99967 3.86368 7.99967Z" stroke="#2F2F2F" stroke-width="1.5" stroke-linecap="round" stroke-linejoin="round"/>
<path d="M6.08333 12.6667C6.08333 13.1667 5.94332 13.64 5.69666 14.04C5.56999 14.2534 5.41665 14.4467 5.23665 14.6C5.21665 14.6267 5.19667 14.6467 5.17 14.6667C4.70334 15.0867 4.09 15.3333 3.41667 15.3333C2.60333 15.3333 1.87665 14.9666 1.39665 14.3933C1.38331 14.3733 1.36335 14.36 1.35002 14.34C1.27002 14.2467 1.19668 14.1467 1.13668 14.04C0.890011 13.64 0.75 13.1667 0.75 12.6667C0.75 11.8267 1.13667 11.0733 1.75 10.5867C1.86333 10.4933 1.98332 10.4133 2.10999 10.3467C2.49665 10.1267 2.94333 10 3.41667 10C4.08333 10 4.68332 10.24 5.14998 10.6466C5.22998 10.7066 5.30333 10.78 5.37 10.8534C5.81 11.3334 6.08333 11.9667 6.08333 12.6667Z" stroke="#2F2F2F" stroke-width="1.5" stroke-miterlimit="10" stroke-linecap="round" stroke-linejoin="round"/>
<path d="M4.40999 12.6533H2.42334" stroke="#2F2F2F" stroke-width="1.5" stroke-miterlimit="10" stroke-linecap="round" stroke-linejoin="round"/>
<path d="M3.4165 11.6797V13.673" stroke="#2F2F2F" stroke-width="1.5" stroke-miterlimit="10" stroke-linecap="round" stroke-linejoin="round"/>
</svg>
