<svg width="37" height="37" viewBox="0 0 37 37" fill="none" xmlns="http://www.w3.org/2000/svg">
<path d="M26.7482 13.9521L23.1407 25.5763C22.2774 28.3359 18.4078 28.3821 17.4982 25.638L16.4191 22.4467C16.1262 21.568 15.4324 20.8588 14.5537 20.5813L11.347 19.5021C8.61824 18.5925 8.66449 14.6921 11.4241 13.8596L23.0482 10.2367C25.3299 9.54296 27.4728 11.6859 26.7482 13.9521Z" stroke="#9E9A9A" stroke-width="1.5" stroke-linecap="round" stroke-linejoin="round"/>
<path d="M13.8747 33.9168H23.1247C30.833 33.9168 33.9163 30.8335 33.9163 23.1252V13.8752C33.9163 6.16683 30.833 3.0835 23.1247 3.0835H13.8747C6.16634 3.0835 3.08301 6.16683 3.08301 13.8752V23.1252C3.08301 30.8335 6.16634 33.9168 13.8747 33.9168Z" stroke="#9E9A9A" stroke-width="1.5" stroke-linecap="round" stroke-linejoin="round"/>
</svg>
