<svg width="16" height="16" viewBox="0 0 16 16" fill="none" xmlns="http://www.w3.org/2000/svg">
<path d="M8.66602 7.43359H4.66602" stroke="white" stroke-width="1.5" stroke-linecap="round" stroke-linejoin="round"/>
<path d="M1.33398 7.43258V4.35258C1.33398 2.99258 2.43399 1.89258 3.79399 1.89258H7.54065C8.90065 1.89258 10.0007 2.73924 10.0007 4.09924" stroke="white" stroke-width="1.5" stroke-linecap="round" stroke-linejoin="round"/>
<path d="M11.654 8.13293C11.3206 8.45293 11.1607 8.94626 11.294 9.45292C11.4607 10.0729 12.074 10.4663 12.714 10.4663H13.334V11.4329C13.334 12.9063 12.1407 14.0996 10.6673 14.0996H4.00065C2.52732 14.0996 1.33398 12.9063 1.33398 11.4329V6.76628C1.33398 5.29294 2.52732 4.09961 4.00065 4.09961H10.6673C12.134 4.09961 13.334 5.29961 13.334 6.76628V7.73291H12.614C12.2406 7.73291 11.9006 7.8796 11.654 8.13293Z" stroke="white" stroke-width="1.5" stroke-linecap="round" stroke-linejoin="round"/>
<path d="M14.6675 8.41243V9.78577C14.6675 10.1591 14.3608 10.4658 13.9808 10.4658H12.6941C11.9741 10.4658 11.3141 9.93912 11.2541 9.21912C11.2141 8.79912 11.3741 8.40578 11.6541 8.13245C11.9008 7.87911 12.2408 7.73242 12.6141 7.73242H13.9808C14.3608 7.73242 14.6675 8.0391 14.6675 8.41243Z" stroke="white" stroke-width="1.5" stroke-linecap="round" stroke-linejoin="round"/>
</svg>
