<svg width="34" height="34" viewBox="0 0 34 34" fill="none" xmlns="http://www.w3.org/2000/svg">
<path d="M18.417 15.7959H9.91699" stroke="#2F2F2F" stroke-width="1.5" stroke-linecap="round" stroke-linejoin="round"/>
<path d="M2.83301 15.7959V9.25094C2.83301 6.36094 5.17051 4.02344 8.06051 4.02344H16.0222C18.9122 4.02344 21.2497 5.8226 21.2497 8.7126" stroke="#2F2F2F" stroke-width="1.5" stroke-linecap="round" stroke-linejoin="round"/>
<path d="M24.763 17.2837C24.0546 17.9637 23.7147 19.012 23.998 20.0887C24.3522 21.4062 25.6555 22.242 27.0155 22.242H28.333V24.2962C28.333 27.4271 25.7972 29.9629 22.6663 29.9629H8.49967C5.36884 29.9629 2.83301 27.4271 2.83301 24.2962V14.3796C2.83301 11.2487 5.36884 8.71289 8.49967 8.71289H22.6663C25.783 8.71289 28.333 11.2629 28.333 14.3796V16.4337H26.803C26.0096 16.4337 25.2871 16.7454 24.763 17.2837Z" stroke="#2F2F2F" stroke-width="1.5" stroke-linecap="round" stroke-linejoin="round"/>
<path d="M31.1666 17.8786V20.797C31.1666 21.5903 30.5149 22.242 29.7074 22.242H26.9733C25.4433 22.242 24.0408 21.1228 23.9133 19.5928C23.8283 18.7003 24.1683 17.8645 24.7633 17.2836C25.2874 16.7453 26.01 16.4336 26.8033 16.4336H29.7074C30.5149 16.4336 31.1666 17.0853 31.1666 17.8786Z" stroke="#2F2F2F" stroke-width="1.5" stroke-linecap="round" stroke-linejoin="round"/>
</svg>
