<svg width="653" height="683" viewBox="0 0 653 683" fill="none" xmlns="http://www.w3.org/2000/svg">
<mask id="path-1-inside-1_425_2868" fill="white">
<path fill-rule="evenodd" clip-rule="evenodd" d="M571 20C571 8.9543 562.046 0 551 0H20C8.95431 0 0 8.9543 0 20V663C0 674.046 8.95429 683 20 683H633C644.046 683 653 674.046 653 663V106C653 94.9543 644.046 86 633 86H591C579.954 86 571 77.0457 571 66V20Z"/>
</mask>
<path fill-rule="evenodd" clip-rule="evenodd" d="M571 20C571 8.9543 562.046 0 551 0H20C8.95431 0 0 8.9543 0 20V663C0 674.046 8.95429 683 20 683H633C644.046 683 653 674.046 653 663V106C653 94.9543 644.046 86 633 86H591C579.954 86 571 77.0457 571 66V20Z" fill="#39498C"/>
<path d="M20 1H551V-1H20V1ZM1 663V20H-1V663H1ZM633 682H20V684H633V682ZM652 106V663H654V106H652ZM633 85H591V87H633V85ZM572 66V20H570V66H572ZM591 85C580.507 85 572 76.4934 572 66H570C570 77.598 579.402 87 591 87V85ZM654 106C654 94.402 644.598 85 633 85V87C643.493 87 652 95.5066 652 106H654ZM633 684C644.598 684 654 674.598 654 663H652C652 673.493 643.493 682 633 682V684ZM-1 663C-1 674.598 8.402 684 20 684V682C9.50657 682 1 673.493 1 663H-1ZM551 1C561.493 1 570 9.50659 570 20H572C572 8.40202 562.598 -1 551 -1V1ZM20 -1C8.40202 -1 -1 8.40202 -1 20H1C1 9.50659 9.50659 1 20 1V-1Z" fill="#0C1F6E" mask="url(#path-1-inside-1_425_2868)"/>
</svg>
